# xmcd CD database file
#
# Track frame offsets:
#	150
#	32625
#	61950
#	98400
#	127950
#	158325
#	182850
#	217725
#
# Disc length: 3443 seconds
#
# Revision: 0
# Processed by: cddbd v1.5.1PL0 Copyright (c) Steve Scherf et al.
# Submitted via: CDex 1.51
#
DISCID=570d7108
DTITLE=Andres Bojarsky - Into The Light
DYEAR=1996
DGENRE=Jazz
TTITLE0=Movin'
TTITLE1=Adriana'S Theme
TTITLE2=16 and 7
TTITLE3=El Mono
TTITLE4=Monte Carlo
TTITLE5=Saying Goodbye
TTITLE6=Mambotango
TTITLE7=Alone Together
EXTD=YEAR: 1996
EXTT0=
EXTT1=
EXTT2=
EXTT3=
EXTT4=
EXTT5=
EXTT6=
EXTT7=
PLAYORDER=
